<svg t="1718712955534" class="icon" viewBox="0 0 1024 1024" version="1.1" xmlns="http://www.w3.org/2000/svg" p-id="31491" width="200" height="200"><path d="M186.986667 205.333333c75.946667-92.8 195.2-145.6 314.026666-150.826666 125.013333-4.373333 253.12 45.226667 337.386667 138.666666-9.813333 2.986667-19.626667 5.866667-29.546667 8.64C688.106667 66.88 468.693333 42.453333 314.453333 133.226667c-36.8 20.16-66.773333 49.706667-101.226666 73.28-6.506667-0.32-19.626667-0.96-26.24-1.173334z" fill="#EEA34E" p-id="31492"></path><path d="M314.453333 133.226667c154.24-90.773333 373.653333-66.346667 494.4 68.586666-57.066667 20.693333-105.066667-23.253333-137.6-64.213333-7.253333 8-31.253333 17.6-18.56 30.826667 37.76 66.453333 124.16 93.76 193.493334 61.12 53.013333 82.986667 102.506667 176.533333 94.72 278.186666-42.453333-47.786667-100.8-76.8-145.813334-121.706666-25.493333-59.52-121.6-68.373333-152.533333-9.92-12.266667 13.973333 7.573333 24.64 15.68 32.96 22.4-25.706667 56-37.44 88-21.333334 11.733333 61.973333 19.733333 124.586667 33.386667 186.24-32.533333-20.586667-71.68-13.76-107.946667-14.4-122.133333 0.106667-244.266667 0.533333-366.4 0.426667 37.546667-30.08 90.346667-11.093333 134.293333-22.826667-20.586667-31.68-38.933333-64.746667-56.96-98.026666-14.613333-32-52.16-39.68-79.36-57.493334 31.36-11.733333 63.68-1.6 82.666667 25.386667 11.413333-6.72 30.72-15.573333 20.16-32.213333-29.226667-58.986667-125.12-53.653333-152.96 4.48-2.56 2.88-7.573333 8.533333-10.026667 11.413333-13.013333-52.266667 71.146667-60.48 56.106667-112.32-30.613333-1.6-62.186667-2.24-90.453333-15.68 61.973333 4.266667 119.573333-33.386667 149.973333-85.546667 9.066667-15.36-8.533333-34.773333-24.533333-25.6-21.973333 21.12-38.506667 49.706667-68.053334 61.44-28.16 13.44-59.946667 4.8-89.386666 1.173334 2.56-2.24 7.68-6.72 10.24-8.853334 6.613333 0.213333 19.733333 0.853333 26.24 1.173334 34.453333-23.573333 64.426667-53.12 101.226666-73.28z" fill="#FDED78" p-id="31493"></path><path d="M652.693333 168.426667c-12.693333-13.226667 11.306667-22.826667 18.56-30.826667 32.533333 40.96 80.533333 84.906667 137.6 64.213333 9.92-2.773333 19.733333-5.653333 29.546667-8.64 19.306667-9.813333 32.96 2.133333 37.333333 21.226667l-13.44 7.146667c-3.946667 2.026667-12.053333 5.973333-16.106666 8-69.333333 32.64-155.733333 5.333333-193.493334-61.12z" fill="#9F2E04" p-id="31494"></path><path d="M334.186667 151.573333c16-9.173333 33.6 10.24 24.533333 25.6-30.4 52.16-88 89.813333-149.973333 85.546667-12.266667-3.946667-24.746667-7.466667-37.226667-10.56l-20.693333-2.56c-19.946667-20.16 0.853333-46.72 25.92-35.413333 29.44 3.626667 61.226667 12.266667 89.386666-1.173334 29.546667-11.733333 46.08-40.32 68.053334-61.44z" fill="#A33B0B" p-id="31495"></path><path d="M846.186667 229.546667c4.053333-2.026667 12.16-5.973333 16.106666-8 76.693333 87.253333 115.093333 210.026667 101.013334 325.226666l-1.92-2.666666c-6.826667-12.053333-13.44-24.32-20.48-36.373334 7.786667-101.653333-41.706667-195.2-94.72-278.186666z" fill="#EEA350" p-id="31496"></path><path d="M83.306667 629.226667c-32.533333-128.213333-11.2-272 67.52-379.626667l20.693333 2.56c-44.906667 84.266667-90.346667 176.533333-75.626667 274.986667-16.426667 31.466667-19.946667 67.52-12.586666 102.08zM84.373333 632.533333c24.746667 36.053333 64.533333 66.56 110.933334 55.786667-20.693333 8-42.986667 7.893333-64.746667 8.64C168 773.333333 224.853333 841.6 298.56 885.333333c96.533333 59.52 217.386667 77.866667 327.04 48.106667 106.24-29.653333 202.773333-99.626667 256.213333-197.12 9.386667-17.706667 16.96-36.266667 24.32-54.826667 13.653333-10.346667 27.093333-21.013333 39.893334-32.426666-36.693333 132.373333-140.48 243.413333-268.48 292.586666-72.64 29.653333-153.386667 33.813333-230.506667 24-172.906667-25.706667-321.706667-163.626667-362.666667-333.12z" fill="#EEA950" p-id="31497"></path><path d="M171.52 252.16c12.48 3.093333 24.96 6.613333 37.226667 10.56 28.266667 13.44 59.84 14.08 90.453333 15.68 15.04 51.84-69.12 60.053333-56.106667 112.32-46.506667 48.32-107.52 81.28-147.2 136.426667-14.72-98.453333 30.72-190.72 75.626667-274.986667z" fill="#FFCB73" p-id="31498"></path><path d="M253.12 379.306667c27.84-58.133333 123.733333-63.466667 152.96-4.48 10.56 16.64-8.746667 25.493333-20.16 32.213333-18.986667-26.986667-51.306667-37.12-82.666667-25.386667-4.8 11.093333-8.96 22.613333-13.333333 33.92 10.24-25.92-8.32-58.026667-36.8-36.266666z" fill="#0D131B" p-id="31499"></path><path d="M642.56 376.106667c30.933333-58.453333 127.04-49.6 152.533333 9.92-17.386667-7.893333-40.853333-27.413333-48.853333 1.706666-32-16.106667-65.6-4.373333-88 21.333334-8.106667-8.32-27.946667-18.986667-15.68-32.96z" fill="#13161A" p-id="31500"></path><path d="M253.12 379.306667c28.48-21.76 47.04 10.346667 36.8 36.266666-5.333333 28.373333-9.066667 56.853333-13.653333 85.333334-8.213333 38.186667-7.146667 77.973333-18.453334 115.626666-12.266667 30.186667-33.386667 56.533333-62.506666 71.786667-46.4 10.773333-86.186667-19.733333-110.933334-55.786667l-1.066666-3.306666c-7.36-34.56-3.84-70.613333 12.586666-102.08 39.68-55.146667 100.693333-88.106667 147.2-136.426667 2.453333-2.88 7.466667-8.533333 10.026667-11.413333m-65.92 85.973333l-3.52 0.64c-26.986667 20.48-52.373333 43.626667-70.72 72.533333h-5.333333c-0.746667 5.76-2.453333 17.173333-3.306667 22.933334l-5.013333-7.253334c-5.013333 25.066667-2.88 50.56 3.946666 74.986667 21.546667 26.026667 56.32 50.346667 90.88 33.92 32.106667-11.52 42.88-45.44 53.333334-74.346667 0.213333-5.76 0.746667-17.173333 1.066666-22.933333 3.413333-21.866667 6.506667-43.84 10.346667-65.706667l0.426667-17.92c1.813333-30.08 7.786667-59.52 15.466666-88.533333-33.386667 18.026667-55.573333 51.2-87.573333 71.68z" fill="#1DAAEC" p-id="31501"></path><path d="M746.24 387.733333c8-29.12 31.466667-9.6 48.853333-1.706666 45.013333 44.906667 103.36 73.92 145.813334 121.706666 7.04 12.053333 13.653333 24.32 20.48 36.373334-2.773333 24.106667-1.92 48.32 0.106666 72.426666-1.28 12.586667-6.4 23.466667-15.466666 32.533334-12.8 11.413333-26.24 22.08-39.893334 32.426666-52.373333 18.56-100.053333-23.253333-117.546666-69.76-2.986667-12.586667-6.08-25.173333-8.96-37.76-13.653333-61.653333-21.653333-124.266667-33.386667-186.24m20.586667 2.773334c2.56 18.026667 6.08 35.946667 10.346666 53.76 2.133333 17.813333 5.013333 35.733333 9.173334 53.226666 3.626667 18.88 7.253333 37.76 11.52 56.426667 0.32 6.186667 1.066667 18.453333 1.493333 24.533333 6.186667 14.613333 12.48 29.12 18.986667 43.626667 35.52 1.706667 69.866667 11.733333 105.173333 14.826667 14.506667-5.76 20.266667-21.12 28.266667-33.066667-1.066667-14.4-2.026667-28.693333-2.986667-42.88l-3.626667-0.533333c-6.506667-19.946667-16.853333-38.293333-31.36-53.333334-20.266667-18.346667-41.493333-35.733333-63.893333-51.52l-2.986667 0.213334c-26.986667-21.44-52.693333-44.373333-80.106666-65.28z" fill="#3AB0E4" p-id="31502"></path><path d="M289.92 415.573333c4.373333-11.306667 8.533333-22.826667 13.333333-33.92 27.2 17.813333 64.746667 25.493333 79.36 57.493334 18.026667 33.28 36.373333 66.346667 56.96 98.026666-43.946667 11.733333-96.746667-7.253333-134.293333 22.826667-4.8 3.733333-14.613333 11.2-19.52 14.826667-10.986667-22.933333-12.8-48.96-9.493333-73.92 4.586667-28.48 8.32-56.96 13.653333-85.333334zM788.586667 611.733333c17.493333 46.506667 65.173333 88.32 117.546666 69.76-7.36 18.56-14.933333 37.12-24.32 54.826667-41.493333-13.226667-77.973333 20.373333-119.36 20.266667-25.173333 25.28-45.76 58.666667-79.466666 73.173333-3.733333-1.066667-11.306667-3.2-15.146667-4.266667 19.626667-15.253333 38.933333-31.04 55.68-49.493333 39.68-45.76 58.453333-104.853333 65.066667-164.266667z" fill="#FEDB75" p-id="31503"></path><path d="M187.2 465.28c32-20.48 54.186667-53.653333 87.573333-71.68-7.68 29.013333-13.653333 58.453333-15.466666 88.533333-5.76-13.76-12.373333-27.093333-18.88-40.426666-16.533333 10.346667-33.066667 22.293333-53.226667 23.573333zM274.026667 583.253333c40.853333-20.8 87.573333-9.92 131.413333-12.266666 121.386667 2.24 243.093333-4.693333 364.373333 2.773333 5.653333 15.573333 10.773333 31.253333 14.4 47.466667-25.813333 9.066667-53.44 6.293333-80.213333 6.506666-121.066667-0.213333-242.026667-0.106667-362.986667 0-26.986667-0.426667-54.613333 2.666667-80.853333-5.333333 4.906667-13.013333 9.493333-26.026667 13.866667-39.146667z" fill="#FFFFFF" p-id="31504"></path><path d="M766.826667 390.506667c27.413333 20.906667 53.12 43.84 80.106666 65.28-3.52 0.213333-10.666667 0.533333-14.186666 0.746666-17.92-6.72-36.053333-13.76-55.573334-12.266666-4.266667-17.813333-7.786667-35.733333-10.346666-53.76z" fill="#DEECF0" p-id="31505"></path><path d="M777.173333 444.266667c19.52-1.493333 37.653333 5.546667 55.573334 12.266666 3.52-0.213333 10.666667-0.533333 14.186666-0.746666l2.986667-0.213334c22.4 15.786667 43.626667 33.173333 63.893333 51.52-42.56 6.186667-83.84-20.693333-127.466666-9.6-4.16-17.493333-7.04-35.413333-9.173334-53.226666z" fill="#B6DDED" p-id="31506"></path><path d="M187.2 465.28c20.16-1.28 36.693333-13.226667 53.226667-23.573333 6.506667 13.333333 13.12 26.666667 18.88 40.426666l-0.426667 17.92c-46.4 4.48-95.146667 8.533333-133.44 37.973334l-12.48 0.426666c18.346667-28.906667 43.733333-52.053333 70.72-72.533333l3.52-0.64z" fill="#B2DCED" p-id="31507"></path><path d="M786.346667 497.493333c43.626667-11.093333 84.906667 15.786667 127.466666 9.6 14.506667 15.04 24.853333 33.386667 31.36 53.333334-39.573333-4.266667-77.546667-17.493333-116.906666-22.506667-12.373333-1.92-20.693333 10.666667-30.4 16-4.266667-18.666667-7.893333-37.546667-11.52-56.426667z" fill="#98D2EB" p-id="31508"></path><path d="M125.44 538.026667c38.293333-29.44 87.04-33.493333 133.44-37.973334-3.84 21.866667-6.933333 43.84-10.346667 65.706667-8.853333-5.653333-16.213333-17.28-28.16-15.466667-39.253333 1.813333-76.373333 16-112.32 31.04-0.96-5.013333-2.773333-14.933333-3.733333-19.946666 0.853333-5.76 2.56-17.173333 3.306667-22.933334h5.333333l12.48-0.426666z" fill="#93D0EA" p-id="31509"></path><path d="M257.813333 616.533333c11.306667-37.653333 10.24-77.44 18.453334-115.626666-3.306667 24.96-1.493333 50.986667 9.493333 73.92 4.906667-3.626667 14.72-11.093333 19.52-14.826667 122.133333 0.106667 244.266667-0.32 366.4-0.426667 36.266667 0.64 75.413333-6.186667 107.946667 14.4 2.88 12.586667 5.973333 25.173333 8.96 37.76-6.613333 59.413333-25.386667 118.506667-65.066667 164.266667-11.093333-10.88-22.08-21.973333-33.6-32.32-102.72-85.866667-274.986667-80.213333-363.946667 23.04l-5.973333 3.52c-36.48-43.626667-51.413333-99.093333-62.186667-153.706667m16.213334-33.28c-4.373333 13.12-8.96 26.133333-13.866667 39.146667 26.24 8 53.866667 4.906667 80.853333 5.333333 120.96-0.106667 241.92-0.213333 362.986667 0 26.773333-0.213333 54.4 2.56 80.213333-6.506666-3.626667-16.213333-8.746667-31.893333-14.4-47.466667-121.28-7.466667-242.986667-0.533333-364.373333-2.773333-43.84 2.346667-90.56-8.533333-131.413333 12.266666z" fill="#7D180F" p-id="31510"></path><path d="M797.866667 553.92c9.706667-5.333333 18.026667-17.92 30.4-16 39.36 5.013333 77.333333 18.24 116.906666 22.506667l3.626667 0.533333c0.96 14.186667 1.92 28.48 2.986667 42.88-50.453333-10.24-100.586667-24.32-152.426667-25.386667-0.426667-6.08-1.173333-18.346667-1.493333-24.533333z" fill="#79C7E8" p-id="31511"></path><path d="M220.373333 550.293333c11.946667-1.813333 19.306667 9.813333 28.16 15.466667-0.32 5.76-0.853333 17.173333-1.066666 22.933333-49.173333 8.533333-102.933333 8.746667-144.213334 40.426667-6.826667-24.426667-8.96-49.92-3.946666-74.986667l5.013333 7.253334c0.96 5.013333 2.773333 14.933333 3.733333 19.946666 35.946667-15.04 73.066667-29.226667 112.32-31.04z" fill="#73C6E8" p-id="31512"></path><path d="M961.386667 544.106667l1.92 2.666666c12.16 16.853333 19.626667 61.76-1.813334 69.76-2.026667-24.106667-2.88-48.32-0.106666-72.426666z" fill="#14536D" opacity=".68" p-id="31513"></path><path d="M799.36 578.453333c51.84 1.066667 101.973333 15.146667 152.426667 25.386667-8 11.946667-13.76 27.306667-28.266667 33.066667-35.306667-3.093333-69.653333-13.12-105.173333-14.826667-6.506667-14.506667-12.8-29.013333-18.986667-43.626667z" fill="#5BBDE6" p-id="31514"></path><path d="M103.253333 629.12c41.28-31.68 95.04-31.893333 144.213334-40.426667-10.453333 28.906667-21.226667 62.826667-53.333334 74.346667-34.56 16.426667-69.333333-7.893333-90.88-33.92z" fill="#50B9E5" p-id="31515"></path><path d="M195.306667 688.32c29.12-15.253333 50.24-41.6 62.506666-71.786667 10.773333 54.613333 25.706667 110.08 62.186667 153.706667 14.08 16.106667 29.226667 31.36 46.08 44.693333 53.333333 39.253333 121.066667 63.146667 187.733333 52.693334 40.746667-5.12 78.4-22.613333 114.026667-42.133334 3.84 1.066667 11.413333 3.2 15.146667 4.266667 33.706667-14.506667 54.293333-47.893333 79.466666-73.173333 41.386667 0.106667 77.866667-33.493333 119.36-20.266667-53.44 97.493333-149.973333 167.466667-256.213333 197.12C515.946667 963.2 395.093333 944.853333 298.56 885.333333c-73.706667-43.733333-130.56-112-168-188.373333 21.76-0.746667 44.053333-0.64 64.746667-8.64z" fill="#FFCA73" p-id="31516"></path><path d="M325.973333 766.72c88.96-103.253333 261.226667-108.906667 363.946667-23.04-87.786667-6.933333-175.893333-3.306667-263.893333-5.013333-35.84-2.773333-67.946667 15.146667-100.053334 28.053333z" fill="#EB7162" p-id="31517"></path><path d="M325.973333 766.72c32.106667-12.906667 64.213333-30.826667 100.053334-28.053333 88 1.706667 176.106667-1.92 263.893333 5.013333 11.52 10.346667 22.506667 21.44 33.6 32.32-16.746667 18.453333-36.053333 34.24-55.68 49.493333l7.573333-16.746666c-71.68 13.226667-144.746667 6.08-217.173333 8.426666-30.826667 2.026667-61.866667-10.773333-92.16-2.24-16.853333-13.333333-32-28.586667-46.08-44.693333l5.973333-3.52z" fill="#E55D3A" p-id="31518"></path><path d="M366.08 814.933333c30.293333-8.533333 61.333333 4.266667 92.16 2.24 72.426667-2.346667 145.493333 4.8 217.173333-8.426666l-7.573333 16.746666c-35.626667 19.52-73.28 37.013333-114.026667 42.133334-66.666667 10.453333-134.4-13.44-187.733333-52.693334z" fill="#DE4B13" p-id="31519"></path></svg>
