<?xml version="1.0" standalone="no"?><!DOCTYPE svg PUBLIC "-//W3C//DTD SVG 1.1//EN" "http://www.w3.org/Graphics/SVG/1.1/DTD/svg11.dtd"><svg t="1725698746223" class="icon" viewBox="0 0 1156 1024" version="1.1" xmlns="http://www.w3.org/2000/svg" p-id="22914" xmlns:xlink="http://www.w3.org/1999/xlink" width="225.78125" height="200"><path d="M735.002968 569.112677a24.621187 24.621187 0 0 0-24.621187 24.621187 135.214714 135.214714 0 0 1-270.429428 0 24.621187 24.621187 0 0 0-49.242373 0 184.457088 184.457088 0 0 0 368.914175 0 24.621187 24.621187 0 0 0-24.621187-24.621187z m347.925623-136.829218a510.586905 510.586905 0 0 0-1009.065031 0 104.539137 104.539137 0 0 0 11.301529 201.813006h5.247138c23.006683 0 36.326341-11.301528 36.326341-29.061073v-4.03626a443.988613 443.988613 0 0 1-8.879772-90.008601 461.344532 461.344532 0 1 1 640.554481 424.210939 49.242373 49.242373 0 1 0-29.464699 88.797723 48.838747 48.838747 0 0 0 48.838747-43.59161 510.990531 510.990531 0 0 0 295.857867-345.907492 104.539137 104.539137 0 0 0 9.283399-201.813006zM49.242373 531.979084a54.893138 54.893138 0 0 1 18.970423-40.362601v20.1813a506.550645 506.550645 0 0 0 4.439886 66.194666 54.489512 54.489512 0 0 1-23.410309-46.013365z m1035.300722 44.802487a506.550645 506.550645 0 0 0 5.247138-66.194666v-20.1813a54.893138 54.893138 0 0 1 18.970422 40.362601 55.70039 55.70039 0 0 1-24.21756 46.013365z m-112.611658-66.194666a393.938988 393.938988 0 1 0-393.535362 393.535362 393.938988 393.938988 0 0 0 393.535362-393.535362z m-393.535362 344.292989a344.696614 344.696614 0 1 1 344.292989-344.292989 344.292988 344.292988 0 0 1-344.292989 344.292989zM439.952353 448.832125a49.242373 49.242373 0 1 0-49.242373 0 48.838747 48.838747 0 0 0 49.242373 0zM753.569765 363.263411a49.242373 49.242373 0 1 0 24.621186 42.784357A48.838747 48.838747 0 0 0 753.569765 363.263411z" fill="#1296DB" p-id="22915"></path></svg>