<?xml version="1.0" standalone="no"?><!DOCTYPE svg PUBLIC "-//W3C//DTD SVG 1.1//EN" "http://www.w3.org/Graphics/SVG/1.1/DTD/svg11.dtd"><svg t="1719767435023" class="icon" viewBox="0 0 1024 1024" version="1.1" xmlns="http://www.w3.org/2000/svg" p-id="46059" xmlns:xlink="http://www.w3.org/1999/xlink" width="200" height="200"><path d="M509.41 45.865c-257.692 0-466.605 208.904-466.605 466.596 0 257.708 208.913 466.605 466.605 466.605s466.596-208.9 466.596-466.605c0-257.696-208.909-466.596-466.596-466.596z m0 579.947c-62.6 0-113.347-50.747-113.347-113.35 0-62.593 50.742-113.331 113.347-113.331 62.596 0 113.334 50.742 113.334 113.33 0.008 62.596-50.734 113.35-113.334 113.35z" fill="#A3A3B8" p-id="46060"></path><path d="M911.422 618.75c14.559-44.246 22.449-91.509 22.449-140.632 0-248.281-201.265-449.554-449.566-449.554C236.028 28.576 34.75 229.844 34.75 478.13s201.277 449.566 449.562 449.566c50.611 0 99.251-8.39 144.649-23.81l8.64 25.49C908.446 843.8 937.506 629.465 937.506 629.465l-26.084-10.714zM636.725 505.956l-24.4-10.017c0 95.23-90.398 92.62-90.398 92.62l13.522 39.827a128.364 128.364 0 0 1-26.896 2.844c-70.826 0-128.254-57.423-128.254-128.253 0-13.219 2.009-25.958 5.722-37.959l18.748 6.366s-2.623-90.394 92.61-90.394l-2.282-5.554a129.082 129.082 0 0 1 13.456-0.705c70.83 0 128.254 57.42 128.254 128.254-0.009 0.992-0.05 1.975-0.082 2.971zM515.672 917.888c-225.537 0-408.39-182.833-408.39-408.394 0-46.087 7.645-90.386 21.716-131.71l213.81 72.573a177.008 177.008 0 0 0-9.07 55.972c0 97.907 79.368 177.27 177.27 177.27 14.297 0 28.183-1.741 41.5-4.938l75.839 223.438a408.452 408.452 0 0 1-112.675 15.789zM687.09 526.643c0.766-6.673 1.193-13.44 1.193-20.314 0-97.902-79.36-177.27-177.27-177.27-11.506 0-22.745 1.135-33.64 3.23L390.49 120.69a408.087 408.087 0 0 1 125.183-19.575c225.546 0 408.39 182.836 408.39 408.378a407.988 407.988 0 0 1-14.591 108.456L687.09 526.643z" fill="#FFFFFF" opacity=".12" p-id="46061"></path><path d="M509.41 605.654c-51.386 0-93.19-41.807-93.19-93.193 0-51.378 41.808-93.172 93.19-93.172 51.373 0 93.176 41.799 93.176 93.172 0.013 51.382-41.803 93.193-93.176 93.193z m133.495-93.197c0-73.605-59.882-133.488-133.491-133.488-73.618 0-133.504 59.883-133.504 133.488 0 73.626 59.886 133.508 133.504 133.508 73.605 0.004 133.491-59.882 133.491-133.508z" fill="#6E6E96" p-id="46062"></path><path d="M390.16 492.11c0 17.363 4.313 33.717 11.908 48.063a113.437 113.437 0 0 1-3.976-29.745c0-62.596 50.746-113.338 113.35-113.338 10.297 0 20.26 1.398 29.745 3.972a102.403 102.403 0 0 0-48.062-11.907c-56.866 0-102.964 46.098-102.964 102.956zM511.444 43.833c-257.696 0-466.605 208.904-466.605 466.6 0 257.7 208.909 466.596 466.605 466.596 257.708 0 466.592-208.9 466.592-466.596 0.004-257.696-208.897-466.6-466.592-466.6zM493.13 915.987c-234.09 0-423.87-189.772-423.87-423.875 0-234.095 189.78-423.863 423.87-423.863S916.992 258.02 916.992 492.111C917 726.214 727.225 915.986 493.13 915.986z" fill="#9B9BB0" p-id="46063"></path><path d="M509.41 605.461c-51.284 0-92.993-41.725-92.993-93 0-24.838 9.67-48.185 27.232-65.752a92.41 92.41 0 0 1 65.76-27.232c51.28 0 92.993 41.717 92.993 92.992 0.004 51.28-41.721 92.992-92.992 92.992z m133.692-93.004c0-73.712-59.985-133.684-133.692-133.684-35.713 0-69.29 13.907-94.538 39.155-25.248 25.248-39.16 58.825-39.16 94.529 0 73.72 59.974 133.7 133.698 133.7 73.72 0 133.692-59.98 133.692-133.7z" fill="#6E6E96" p-id="46064"></path><path d="M509.41 25.707c-268.402 0-486.762 218.36-486.762 486.754 0 268.402 218.36 486.762 486.762 486.762 268.39 0 486.753-218.356 486.753-486.762 0-268.398-218.352-486.754-486.753-486.754z m446.438 486.75c0 246.174-200.272 446.45-446.438 446.45-246.175 0-446.447-200.276-446.447-446.45 0-246.166 200.276-446.439 446.447-446.439 246.166 0.004 446.438 200.273 446.438 446.439z" fill="#6E6E96" p-id="46065"></path><path d="M329.946 506.657a175.373 175.373 0 1 0 350.746 0 175.373 175.373 0 1 0-350.746 0z" fill="#FF7A92" p-id="46066"></path><path d="M496.544 348.893c-81.43 0-147.436 66.006-147.436 147.435 0 81.422 66.006 147.436 147.436 147.436s147.435-66.006 147.435-147.436-66.006-147.435-147.435-147.435z m13.612 282.091c-66.855 0-121.044-51.607-121.044-115.26 0-63.65 54.193-115.253 121.044-115.253s121.043 51.603 121.043 115.253c0 63.653-54.197 115.26-121.043 115.26z" fill="#FFA8B8" opacity=".74" p-id="46067"></path><path d="M759.79 464.174v182.763c0 37.114 31.949 67.198 71.358 67.198 39.401 0 71.36-30.084 71.36-67.198V464.174c0-37.11-31.959-67.19-71.36-67.19-39.41-0.005-71.359 30.076-71.359 67.19z" fill="#9B9BB0" p-id="46068"></path><path d="M527.206 352.623C587.573 369.345 631.9 424.642 631.9 490.328c0 78.925-63.98 142.915-142.914 142.915-65.683 0-120.979-44.328-137.698-104.686 7.866 81.598 76.61 145.415 160.282 145.415 88.946 0 161.047-72.117 161.047-161.056 0.004-83.68-63.805-152.428-145.41-160.293z" fill="#E36B80" p-id="46069"></path><path d="M660.53 506.657c0 85.582-69.63 155.211-155.215 155.211S350.1 592.238 350.1 506.658c0-85.586 69.625-155.216 155.215-155.216 85.586 0 155.215 69.63 155.215 155.215z m-155.21-195.53c-107.814 0-195.531 87.713-195.531 195.53 0 107.813 87.713 195.526 195.53 195.526s195.53-87.713 195.53-195.526c-0.004-107.817-87.717-195.53-195.53-195.53zM811.908 16.395h40.987v567.917H811.91z" fill="#6E6E96" p-id="46070"></path><path d="M775.151 428.593v155.719c0 31.618 25.634 57.255 57.251 57.255s57.252-25.637 57.252-57.255v-155.72c0-31.617-25.634-57.25-57.252-57.25s-57.25 25.633-57.25 57.25z" fill="#F0F0FF" p-id="46071"></path><path d="M754.994 428.593v155.719a76.892 76.892 0 0 0 22.67 54.735 76.896 76.896 0 0 0 54.734 22.674c42.68 0 77.413-34.729 77.413-77.413v-155.72c0-42.684-34.732-77.408-77.413-77.408a76.88 76.88 0 0 0-54.734 22.674 76.909 76.909 0 0 0-22.67 54.739z m40.315 0c0-9.907 3.857-19.22 10.862-26.228a36.848 36.848 0 0 1 26.223-10.866c20.453 0 37.098 16.641 37.098 37.094v155.719c0 20.453-16.645 37.098-37.098 37.098-9.906 0-19.219-3.857-26.223-10.862s-10.862-16.317-10.862-26.228V428.593z" fill="#6E6E96" p-id="46072"></path><path d="M839.702 370.58c-10.562 0-20.416 2.91-28.92 7.897 18.292 4.616 31.855 21.134 31.855 40.865v114.76c0 23.306-18.887 42.197-42.192 42.197-6.448 0-12.538-1.488-18.006-4.074v11.329c0 31.621 25.633 57.255 57.255 57.255 31.614 0 57.247-25.634 57.247-57.255V427.83c0.008-31.621-25.625-57.25-57.239-57.25z" fill="#6E6E96" opacity=".15" p-id="46073"></path></svg>